<?xml version="1.0" encoding="UTF-8" standalone="no"?>
<svg
   xmlns:dc="http://purl.org/dc/elements/1.1/"
   xmlns:cc="http://creativecommons.org/ns#"
   xmlns:rdf="http://www.w3.org/1999/02/22-rdf-syntax-ns#"
   xmlns:svg="http://www.w3.org/2000/svg"
   xmlns="http://www.w3.org/2000/svg"
   id="svg13"
   height="344.53mm"
   width="258.47mm"
   version="1.0">
  <metadata
     id="metadata17">
    <rdf:RDF>
      <cc:Work
         rdf:about="">
        <dc:format>image/svg+xml</dc:format>
        <dc:type
           rdf:resource="http://purl.org/dc/dcmitype/StillImage" />
      </cc:Work>
    </rdf:RDF>
  </metadata>
  <defs
     id="defs3">
    <pattern
       y="0"
       x="0"
       height="6"
       width="6"
       patternUnits="userSpaceOnUse"
       id="EMFhbasepattern" />
  </defs>
  <path
     id="path5"
     d="  M 705.76772,1250.9055   C 690.70866,1257.9331 675.64961,1265.9646 659.58661,1269.9803   C 618.4252,1280.0197 576.25984,1288.0512 534.09449,1292.0669   C 485.90551,1298.0906 436.7126,1300.0984 388.52362,1301.1024   C 345.35433,1302.1063 302.18504,1300.0984 260.01969,1296.0827   C 242.95276,1294.0748 226.88976,1290.0591 210.82677,1286.0433   L 168.66142,1273.9961   C 135.5315,1262.9528 102.40157,1253.9173 71.279528,1239.8622   C 55.216535,1232.8346 41.161417,1225.8071 27.106299,1214.7638   C 16.062992,1206.7323 6.023622,1194.685 2.007874,1180.6299   C 0,1174.6063 0,1167.5787 1.003937,1160.5512   L 64.251969,575.25591   C 68.267717,543.12992 82.322835,514.01575 95.374016,484.90157   C 103.40551,463.8189 114.44882,444.74409 119.4685,423.66142   C 123.48425,406.59449 125.49213,388.52362 124.48819,371.45669   C 124.48819,348.36614 120.47244,326.27953 112.44094,305.19685   C 106.41732,289.13386 94.370079,276.08268 88.346457,260.01969   C 79.311024,240.94488 73.287402,220.86614 72.283465,200.7874   C 70.275591,179.70472 72.283465,159.62598 75.295276,138.54331   L 88.346457,32.125984   C 89.350394,25.098425 91.358268,17.066929 97.38189,11.043307   C 102.40157,5.019685 110.43307,3.011811 118.46457,2.007874   C 128.50394,1.003937 138.54331,1.003937 147.57874,1.003937   C 170.66929,1.003937 194.76378,0 217.85433,3.011811   C 235.9252,5.019685 255,9.0354331 268.05118,23.090551   C 275.07874,30.11811 278.09055,39.153543 279.09449,49.192913   L 280.09843,82.322835   C 280.09843,85.334646 281.10236,92.362205 283.11024,95.374016   C 284.11417,96.377953 285.11811,96.377953 285.11811,96.377953   L 288.12992,98.385827   L 295.15748,99.389764   L 300.17717,81.318898   L 302.18504,36.141732   L 303.18898,27.106299   C 305.19685,21.082677 309.2126,15.059055 315.23622,12.047244   C 327.28346,6.023622 340.33465,6.023622 353.38583,5.019685   C 383.50394,3.011811 413.62205,4.015748 443.74016,6.023622   C 449.76378,6.023622 455.7874,8.0314961 460.80709,12.047244   C 464.82283,15.059055 468.83858,21.082677 469.84252,27.106299   C 471.85039,39.153543 471.85039,52.204724 471.85039,64.251969   C 471.85039,81.318898 469.84252,99.389764 473.85827,115.45276   L 475.86614,119.4685   L 476.87008,121.47638   L 477.87402,121.47638   L 479.88189,121.47638   C 484.90157,120.47244 489.92126,119.4685 493.93701,115.45276   C 496.94882,113.44488 498.95669,109.42913 500.96457,105.41339   C 501.9685,101.39764 502.97244,98.385827 502.97244,94.370079   C 504.98031,71.279528 501.9685,48.188976 502.97244,26.102362   C 502.97244,20.07874 505.98425,13.051181 510,9.0354331   C 515.01969,4.015748 521.04331,2.007874 527.06693,2.007874   L 637.5,6.023622   C 643.52362,6.023622 648.54331,8.0314961 652.55906,11.043307   C 656.5748,15.059055 659.58661,20.07874 660.59055,25.098425   L 675.64961,106.41732   C 678.66142,129.50787 682.67717,153.60236 681.67323,176.69291   C 680.66929,195.76772 676.65354,213.83858 669.62598,231.90945   C 660.59055,257.00787 644.52756,280.09843 632.48031,305.19685   C 626.45669,318.24803 620.43307,330.29528 618.4252,344.35039   C 616.41732,361.41732 619.42913,378.48425 622.44094,395.55118   C 626.45669,408.60236 631.47638,421.65354 637.5,434.70472   L 666.61417,495.94488   C 672.6378,510 675.64961,524.05512 678.66142,539.11417   L 688.70079,616.41732   L 703.75984,801.14173   L 710.7874,875.43307   L 740.90551,1204.7244   L 735.88583,1205.7283   L 685.68898,878.44488   L 676.65354,803.14961   L 650.55118,579.27165   C 647.53937,561.20079 644.52756,543.12992 639.50787,525.05906   C 634.48819,510 627.46063,495.94488 620.43307,481.88976   C 611.39764,464.82283 601.35827,448.75984 594.33071,430.68898   C 587.30315,411.61417 580.27559,391.53543 578.26772,370.45276   C 576.25984,350.37402 579.27165,330.29528 585.29528,311.22047   C 593.32677,286.12205 609.38976,265.03937 619.42913,241.94882   C 627.46063,224.88189 633.48425,207.81496 636.49606,189.74409   C 638.50394,178.70079 638.50394,168.66142 636.49606,157.61811   L 631.47638,113.44488   L 622.44094,69.271654   L 618.4252,52.204724   L 583.2874,51.200787   L 553.16929,51.200787   L 553.16929,59.232283   L 553.16929,100.3937   L 551.16142,111.43701   C 549.15354,119.4685 546.14173,127.5 543.12992,134.52756   C 538.11024,141.55512 533.09055,148.58268 527.06693,154.6063   C 514.01575,165.64961 496.94882,171.67323 480.88583,172.67717   C 470.84646,173.6811 459.80315,171.67323 450.76772,166.65354   C 440.72835,160.62992 433.70079,151.59449 428.6811,141.55512   C 424.66535,133.52362 422.65748,126.49606 421.65354,118.46457   L 419.64567,107.42126   L 418.64173,64.251969   L 418.64173,59.232283   L 385.51181,59.232283   L 357.40157,60.23622   L 356.39764,60.23622   L 356.39764,87.34252   L 342.34252,141.55512   L 338.32677,148.58268   C 335.31496,152.59843 329.29134,155.61024 324.27165,156.61417   C 314.23228,159.62598 302.18504,158.62205 292.14567,156.61417   C 281.10236,155.61024 270.05906,152.59843 260.01969,148.58268   C 252.99213,145.57087 246.9685,140.55118 241.94882,135.5315   C 234.92126,127.5 229.90157,118.46457 225.88583,108.4252   L 221.87008,89.350394   L 220.86614,70.275591   L 219.8622,63.248031   L 210.82677,62.244094   L 191.75197,61.240157   L 150.59055,61.240157   L 146.5748,62.244094   L 144.56693,88.346457   L 137.53937,145.57087   L 134.52756,172.67717   C 134.52756,186.73228 134.52756,201.79134 137.53937,214.84252   C 141.55512,228.89764 151.59449,240.94488 158.62205,253.99606   C 169.66535,277.08661 181.7126,300.17717 186.73228,325.27559   C 192.75591,350.37402 190.74803,375.47244 188.74016,401.5748   C 186.73228,426.67323 181.7126,452.77559 172.67717,476.87008   C 164.64567,501.9685 146.5748,523.05118 140.55118,548.14961   L 132.51969,582.28346   L 104.40945,875.43307   L 77.30315,1156.5354   L 80.314961,1159.5472   L 101.39764,1169.5866   L 189.74409,1198.7008   L 233.91732,1210.748   C 245.96457,1213.7598 257.00787,1216.7717 269.05512,1217.7756   C 308.20866,1220.7874 347.3622,1221.7913 386.51575,1220.7874   C 432.69685,1219.7835 478.87795,1216.7717 524.05512,1210.748   C 562.20472,1206.7323 599.35039,1199.7047 635.49213,1190.6693   C 645.5315,1187.6575 654.56693,1182.6378 663.60236,1178.622   z  M 475.86614,121.47638   L 475.86614,121.47638   L 475.86614,121.47638   z "
     style="fill:#25221e;fill-rule:evenodd;fill-opacity:1;stroke:none;" />
  <path
     id="path7"
     d="  M 369.44882,358.40551   L 360.41339,465.82677   L 359.40945,468.83858   L 358.40551,481.88976   L 358.40551,481.88976   L 367.44094,482.8937   L 370.45276,483.89764   L 383.50394,485.90551   C 391.53543,487.91339 399.56693,488.91732 407.59843,492.93307   L 420.64961,504.98031   L 420.64961,506.98819   L 387.51969,512.00787   L 370.45276,515.01969   L 358.40551,516.02362   L 350.37402,517.02756   L 342.34252,517.02756   L 337.32283,516.02362   L 335.31496,515.01969   L 337.32283,516.02362   L 329.29134,514.01575   L 323.26772,510   L 318.24803,502.97244   C 316.24016,496.94882 316.24016,489.92126 315.23622,482.8937   L 311.22047,440.72835   L 305.19685,358.40551   z "
     style="fill:#25221e;fill-rule:evenodd;fill-opacity:1;stroke:none;" />
  <path
     id="path9"
     d="  M 320.25591,336.3189   L 357.40157,342.34252   L 380.49213,347.3622   C 384.50787,347.3622 389.52756,347.3622 393.54331,348.36614   L 407.59843,349.37008   C 412.61811,349.37008 417.6378,349.37008 421.65354,350.37402   L 426.67323,352.38189   L 441.73228,361.41732   L 444.74409,364.42913   L 430.68898,361.41732   L 452.77559,367.44094   L 466.83071,375.47244   L 471.85039,379.48819   C 474.8622,381.49606 477.87402,385.51181 478.87795,389.52756   C 479.88189,395.55118 478.87795,401.5748 477.87402,406.59449   L 473.85827,445.74803   L 472.85433,456.79134   L 469.84252,471.85039   L 467.83465,474.8622   L 466.83071,472.85433   L 466.83071,475.86614   L 465.82677,478.87795   L 465.82677,482.8937   C 464.82283,488.91732 463.8189,494.94094 461.81102,500.96457   L 455.7874,516.02362   L 452.77559,516.02362   C 448.75984,505.98425 445.74803,495.94488 443.74016,485.90551   L 441.73228,478.87795   C 441.73228,476.87008 440.72835,474.8622 440.72835,472.85433   C 441.73228,467.83465 445.74803,463.8189 444.74409,459.80315   C 444.74409,454.78346 441.73228,450.76772 440.72835,445.74803   L 439.72441,431.69291   L 437.71654,418.64173   L 437.71654,410.61024   L 435.70866,410.61024   L 430.68898,409.6063   L 409.6063,399.56693   L 406.59449,396.55512   L 410.61024,400.57087   L 405.59055,399.56693   L 410.61024,401.5748   L 407.59843,401.5748   L 400.57087,401.5748   L 393.54331,402.57874   C 389.52756,402.57874 384.50787,403.58268 380.49213,403.58268   L 357.40157,401.5748   L 320.25591,400.57087   z "
     style="fill:#25221e;fill-rule:evenodd;fill-opacity:1;stroke:none;" />
  <path
     id="path11"
     d="  M 946.7126,1222.7953   L 976.83071,1222.7953   L 976.83071,1202.7165   L 946.7126,1202.7165   z "
     style="fill:#ffffff;fill-rule:evenodd;fill-opacity:1;stroke:#000000;stroke-width:1px;stroke-linecap:butt;stroke-linejoin:miter;stroke-miterlimit:4;stroke-dasharray:none;stroke-opacity:1;" />
</svg>
